<mxfile host="app.diagrams.net" modified="2023-11-26T14:46:42.783Z" agent="Mozilla/5.0 (X11; Linux x86_64) AppleWebKit/537.36 (KHTML, like Gecko) Chrome/119.0.0.0 Safari/537.36" etag="gNcjy6vhV_H82z2jfoFz" version="22.1.4" type="github">
  <diagram name="Page-1" id="AIKU2oJyID1Ob73M_T7Q">
    <mxGraphModel dx="1370" dy="766" grid="1" gridSize="10" guides="1" tooltips="1" connect="1" arrows="1" fold="1" page="1" pageScale="1" pageWidth="827" pageHeight="1169" math="0" shadow="0">
      <root>
        <mxCell id="0" />
        <mxCell id="1" parent="0" />
        <mxCell id="fdVD_ACXHFrnzcHiu9vB-1" value="&lt;h2 style=&quot;font-size: 14px;&quot;&gt;Mutation Testing&lt;/h2&gt;" style="text;html=1;strokeColor=none;fillColor=none;align=center;verticalAlign=middle;whiteSpace=wrap;rounded=0;fontSize=14;" vertex="1" parent="1">
          <mxGeometry x="326" y="20" width="176" height="40" as="geometry" />
        </mxCell>
        <mxCell id="fdVD_ACXHFrnzcHiu9vB-6" value="" style="edgeStyle=orthogonalEdgeStyle;rounded=0;orthogonalLoop=1;jettySize=auto;html=1;fontSize=14;" edge="1" parent="1" source="fdVD_ACXHFrnzcHiu9vB-2" target="fdVD_ACXHFrnzcHiu9vB-5">
          <mxGeometry relative="1" as="geometry" />
        </mxCell>
        <mxCell id="fdVD_ACXHFrnzcHiu9vB-2" value="" style="ellipse;whiteSpace=wrap;html=1;aspect=fixed;fillColor=#008a00;fontColor=#ffffff;strokeColor=#005700;fontSize=14;" vertex="1" parent="1">
          <mxGeometry x="399" y="60" width="30" height="30" as="geometry" />
        </mxCell>
        <mxCell id="fdVD_ACXHFrnzcHiu9vB-8" value="" style="edgeStyle=orthogonalEdgeStyle;rounded=0;orthogonalLoop=1;jettySize=auto;html=1;fontSize=14;" edge="1" parent="1" source="fdVD_ACXHFrnzcHiu9vB-5" target="fdVD_ACXHFrnzcHiu9vB-7">
          <mxGeometry relative="1" as="geometry" />
        </mxCell>
        <mxCell id="fdVD_ACXHFrnzcHiu9vB-5" value="Create mutant versions of the application code." style="rounded=1;whiteSpace=wrap;html=1;fillColor=#0050ef;strokeColor=#001DBC;fontColor=#ffffff;fontSize=14;" vertex="1" parent="1">
          <mxGeometry x="354" y="110" width="120" height="60" as="geometry" />
        </mxCell>
        <mxCell id="fdVD_ACXHFrnzcHiu9vB-15" style="edgeStyle=orthogonalEdgeStyle;rounded=0;orthogonalLoop=1;jettySize=auto;html=1;exitX=0.5;exitY=1;exitDx=0;exitDy=0;entryX=0.5;entryY=0;entryDx=0;entryDy=0;fontSize=14;" edge="1" parent="1" source="fdVD_ACXHFrnzcHiu9vB-7" target="fdVD_ACXHFrnzcHiu9vB-11">
          <mxGeometry relative="1" as="geometry" />
        </mxCell>
        <mxCell id="fdVD_ACXHFrnzcHiu9vB-7" value="Execute unit tests on original code." style="rounded=1;whiteSpace=wrap;html=1;fillColor=#0050ef;strokeColor=#001DBC;fontColor=#ffffff;fontSize=14;" vertex="1" parent="1">
          <mxGeometry x="354" y="190" width="120" height="60" as="geometry" />
        </mxCell>
        <mxCell id="fdVD_ACXHFrnzcHiu9vB-14" value="" style="edgeStyle=orthogonalEdgeStyle;rounded=0;orthogonalLoop=1;jettySize=auto;html=1;fontSize=14;" edge="1" parent="1" source="fdVD_ACXHFrnzcHiu9vB-11" target="fdVD_ACXHFrnzcHiu9vB-13">
          <mxGeometry relative="1" as="geometry" />
        </mxCell>
        <mxCell id="fdVD_ACXHFrnzcHiu9vB-11" value="Execute unit tests on mutant" style="rounded=1;whiteSpace=wrap;html=1;fillColor=#0050ef;strokeColor=#001DBC;fontColor=#ffffff;fontSize=14;" vertex="1" parent="1">
          <mxGeometry x="354" y="270" width="120" height="60" as="geometry" />
        </mxCell>
        <mxCell id="fdVD_ACXHFrnzcHiu9vB-17" value="" style="edgeStyle=orthogonalEdgeStyle;rounded=0;orthogonalLoop=1;jettySize=auto;html=1;fontSize=14;" edge="1" parent="1" source="fdVD_ACXHFrnzcHiu9vB-13" target="fdVD_ACXHFrnzcHiu9vB-16">
          <mxGeometry relative="1" as="geometry">
            <Array as="points">
              <mxPoint x="580" y="440" />
            </Array>
          </mxGeometry>
        </mxCell>
        <mxCell id="fdVD_ACXHFrnzcHiu9vB-19" value="" style="edgeStyle=orthogonalEdgeStyle;rounded=0;orthogonalLoop=1;jettySize=auto;html=1;fontSize=14;" edge="1" parent="1" source="fdVD_ACXHFrnzcHiu9vB-13" target="fdVD_ACXHFrnzcHiu9vB-18">
          <mxGeometry relative="1" as="geometry">
            <Array as="points">
              <mxPoint x="260" y="440" />
            </Array>
          </mxGeometry>
        </mxCell>
        <mxCell id="fdVD_ACXHFrnzcHiu9vB-13" value="Unit test results &lt;br style=&quot;font-size: 14px;&quot;&gt;match result &lt;br style=&quot;font-size: 14px;&quot;&gt;of original code?" style="rhombus;whiteSpace=wrap;html=1;fillColor=#fa6800;strokeColor=#C73500;fontColor=#000000;rounded=1;fontSize=14;" vertex="1" parent="1">
          <mxGeometry x="326" y="350" width="176" height="160" as="geometry" />
        </mxCell>
        <mxCell id="fdVD_ACXHFrnzcHiu9vB-32" style="edgeStyle=orthogonalEdgeStyle;rounded=0;orthogonalLoop=1;jettySize=auto;html=1;exitX=0.5;exitY=1;exitDx=0;exitDy=0;fontSize=14;" edge="1" parent="1" source="fdVD_ACXHFrnzcHiu9vB-16" target="fdVD_ACXHFrnzcHiu9vB-22">
          <mxGeometry relative="1" as="geometry">
            <Array as="points">
              <mxPoint x="580" y="580" />
            </Array>
          </mxGeometry>
        </mxCell>
        <mxCell id="fdVD_ACXHFrnzcHiu9vB-16" value="Mutant killed" style="rounded=1;whiteSpace=wrap;html=1;fillColor=#0050ef;strokeColor=#001DBC;fontColor=#ffffff;fontSize=14;" vertex="1" parent="1">
          <mxGeometry x="520" y="470" width="120" height="60" as="geometry" />
        </mxCell>
        <mxCell id="fdVD_ACXHFrnzcHiu9vB-33" style="edgeStyle=orthogonalEdgeStyle;rounded=0;orthogonalLoop=1;jettySize=auto;html=1;exitX=0.5;exitY=1;exitDx=0;exitDy=0;fontSize=14;" edge="1" parent="1" source="fdVD_ACXHFrnzcHiu9vB-18" target="fdVD_ACXHFrnzcHiu9vB-22">
          <mxGeometry relative="1" as="geometry">
            <Array as="points">
              <mxPoint x="260" y="580" />
            </Array>
          </mxGeometry>
        </mxCell>
        <mxCell id="fdVD_ACXHFrnzcHiu9vB-18" value="Mutant survived" style="rounded=1;whiteSpace=wrap;html=1;fillColor=#0050ef;strokeColor=#001DBC;fontColor=#ffffff;fontSize=14;" vertex="1" parent="1">
          <mxGeometry x="200" y="470" width="120" height="60" as="geometry" />
        </mxCell>
        <mxCell id="fdVD_ACXHFrnzcHiu9vB-25" value="" style="edgeStyle=orthogonalEdgeStyle;rounded=0;orthogonalLoop=1;jettySize=auto;html=1;fontSize=14;" edge="1" parent="1" source="fdVD_ACXHFrnzcHiu9vB-22" target="fdVD_ACXHFrnzcHiu9vB-24">
          <mxGeometry relative="1" as="geometry" />
        </mxCell>
        <mxCell id="fdVD_ACXHFrnzcHiu9vB-34" style="edgeStyle=orthogonalEdgeStyle;rounded=0;orthogonalLoop=1;jettySize=auto;html=1;entryX=1;entryY=0.25;entryDx=0;entryDy=0;exitX=1;exitY=0.5;exitDx=0;exitDy=0;fontSize=14;" edge="1" parent="1" source="fdVD_ACXHFrnzcHiu9vB-22" target="fdVD_ACXHFrnzcHiu9vB-11">
          <mxGeometry relative="1" as="geometry">
            <mxPoint x="700" y="239" as="targetPoint" />
            <mxPoint x="640" y="780" as="sourcePoint" />
            <Array as="points">
              <mxPoint x="690" y="620" />
              <mxPoint x="690" y="285" />
            </Array>
          </mxGeometry>
        </mxCell>
        <mxCell id="fdVD_ACXHFrnzcHiu9vB-22" value="Unit test results &lt;br style=&quot;font-size: 14px;&quot;&gt;match result &lt;br style=&quot;font-size: 14px;&quot;&gt;of original code?" style="rhombus;whiteSpace=wrap;html=1;fillColor=#fa6800;strokeColor=#C73500;fontColor=#000000;rounded=1;fontSize=14;" vertex="1" parent="1">
          <mxGeometry x="326" y="540" width="176" height="160" as="geometry" />
        </mxCell>
        <mxCell id="fdVD_ACXHFrnzcHiu9vB-31" style="edgeStyle=orthogonalEdgeStyle;rounded=0;orthogonalLoop=1;jettySize=auto;html=1;exitX=0.5;exitY=1;exitDx=0;exitDy=0;fontSize=14;" edge="1" parent="1" source="fdVD_ACXHFrnzcHiu9vB-24" target="fdVD_ACXHFrnzcHiu9vB-29">
          <mxGeometry relative="1" as="geometry" />
        </mxCell>
        <mxCell id="fdVD_ACXHFrnzcHiu9vB-24" value="Untested mutants remain?" style="rounded=1;whiteSpace=wrap;html=1;fillColor=#0050ef;strokeColor=#001DBC;fontColor=#ffffff;fontSize=14;" vertex="1" parent="1">
          <mxGeometry x="354" y="720" width="120" height="60" as="geometry" />
        </mxCell>
        <mxCell id="fdVD_ACXHFrnzcHiu9vB-29" value="" style="ellipse;whiteSpace=wrap;html=1;aspect=fixed;fontSize=14;fillColor=#FFCE9F;" vertex="1" parent="1">
          <mxGeometry x="399" y="800" width="30" height="30" as="geometry" />
        </mxCell>
        <mxCell id="fdVD_ACXHFrnzcHiu9vB-36" value="Yes" style="text;html=1;align=center;verticalAlign=middle;resizable=0;points=[];autosize=1;strokeColor=none;fillColor=none;fontSize=14;" vertex="1" parent="1">
          <mxGeometry x="255" y="418" width="50" height="30" as="geometry" />
        </mxCell>
        <mxCell id="fdVD_ACXHFrnzcHiu9vB-38" value="No" style="text;html=1;align=center;verticalAlign=middle;resizable=0;points=[];autosize=1;strokeColor=none;fillColor=none;fontSize=14;" vertex="1" parent="1">
          <mxGeometry x="520" y="418" width="40" height="30" as="geometry" />
        </mxCell>
      </root>
    </mxGraphModel>
  </diagram>
</mxfile>
